<svg width="32" height="32" fill="none" xmlns="http://www.w3.org/2000/svg"><path d="M11.867 14.063a1 1 0 001-1v-3.9A3.166 3.166 0 0116.029 6a3.166 3.166 0 013.162 3.162v3.9a1 1 0 002 0v-3.9A5.168 5.168 0 0016.03 4a5.168 5.168 0 00-5.162 5.162v3.9a1 1 0 001 1z" fill="#000"/><path d="M27.5 11.816h-5.308v1.246c0 1.104-.897 2-2 2s-2-.896-2-2v-1.246h-4.325v1.246c0 1.104-.897 2-2 2s-2-.896-2-2v-1.246H4.5c-.276 0-.447.217-.381.485l3.499 14.248C7.829 27.351 8.672 28 9.5 28h13c.829 0 1.671-.65 1.883-1.45l3.498-14.25c.066-.268-.105-.486-.381-.486z" fill="#000"/><path d="M16.46 17v7h-.72v-6.36h-1.65V17h2.37z" fill="#fff"/></svg>