<svg width="48" height="48" fill="none" xmlns="http://www.w3.org/2000/svg"><path d="M35.62 8.94a.93.93 0 01-.46-.12C31.32 6.84 28 6 24.02 6c-3.96 0-7.72.94-11.14 2.82-.48.26-1.08.08-1.36-.4-.26-.48-.08-1.1.4-1.36C15.64 5.04 19.72 4 24.02 4c4.26 0 7.98.94 12.06 3.04.5.26.68.86.42 1.34a.98.98 0 01-.88.56zM7 19.44a.997.997 0 01-.82-1.58c1.98-2.8 4.5-5 7.5-6.54C19.96 8.08 28 8.06 34.3 11.3c3 1.54 5.52 3.72 7.5 6.5a1 1 0 01-.24 1.4.997.997 0 01-1.4-.24c-1.8-2.52-4.08-4.5-6.78-5.88-5.74-2.94-13.08-2.94-18.8.02-2.72 1.4-5 3.4-6.8 5.92-.16.28-.46.42-.78.42zm12.5 24.14c-.26 0-.52-.1-.7-.3-1.74-1.74-2.68-2.86-4.02-5.28-1.38-2.46-2.1-5.46-2.1-8.68 0-5.94 5.08-10.78 11.32-10.78s11.32 4.84 11.32 10.78c0 .56-.44 1-1 1s-1-.44-1-1c0-4.84-4.18-8.78-9.32-8.78-5.14 0-9.32 3.94-9.32 8.78 0 2.88.64 5.54 1.86 7.7 1.28 2.3 2.16 3.28 3.7 4.84.38.4.38 1.02 0 1.42-.22.2-.48.3-.74.3zm14.34-3.7c-2.38 0-4.48-.6-6.2-1.78-2.98-2.02-4.76-5.3-4.76-8.78 0-.56.44-1 1-1s1 .44 1 1c0 2.82 1.44 5.48 3.88 7.12 1.42.96 3.08 1.42 5.08 1.42.48 0 1.28-.06 2.08-.2.54-.1 1.06.26 1.16.82.1.54-.26 1.06-.82 1.16-1.14.22-2.14.24-2.42.24zM29.82 44c-.08 0-.18-.02-.26-.04-3.18-.88-5.26-2.06-7.44-4.2-2.8-2.78-4.34-6.48-4.34-10.44 0-3.24 2.76-5.88 6.16-5.88 3.4 0 6.16 2.64 6.16 5.88 0 2.14 1.86 3.88 4.16 3.88s4.16-1.74 4.16-3.88c0-7.54-6.5-13.66-14.5-13.66-5.68 0-10.88 3.16-13.22 8.06-.78 1.62-1.18 3.52-1.18 5.6 0 1.56.14 4.02 1.34 7.22.2.52-.06 1.1-.58 1.28-.52.2-1.1-.08-1.28-.58-.98-2.62-1.46-5.22-1.46-7.92 0-2.4.46-4.58 1.36-6.48 2.66-5.58 8.56-9.2 15.02-9.2 9.1 0 16.5 7.02 16.5 15.66 0 3.24-2.76 5.88-6.16 5.88-3.4 0-6.16-2.64-6.16-5.88 0-2.14-1.86-3.88-4.16-3.88s-4.16 1.74-4.16 3.88c0 3.42 1.32 6.62 3.74 9.02 1.9 1.88 3.72 2.92 6.54 3.7.54.14.84.7.7 1.22-.1.46-.52.76-.94.76z" fill="#fff"/></svg>