<svg width="48" height="48" fill="none" xmlns="http://www.w3.org/2000/svg"><path d="M23.982 6C14.046 6 6 14.064 6 24s8.046 18 17.982 18C33.936 42 42 33.936 42 24S33.936 6 23.982 6zm12.474 10.8h-5.31a28.168 28.168 0 00-2.484-6.408 14.453 14.453 0 017.794 6.408zM24 9.672a25.356 25.356 0 013.438 7.128h-6.876A25.356 25.356 0 0124 9.672zM10.068 27.6A14.835 14.835 0 019.6 24c0-1.242.18-2.448.468-3.6h6.084c-.144 1.188-.252 2.376-.252 3.6 0 1.224.108 2.412.252 3.6h-6.084zm1.476 3.6h5.31a28.168 28.168 0 002.484 6.408 14.376 14.376 0 01-7.794-6.408zm5.31-14.4h-5.31a14.376 14.376 0 017.794-6.408 28.168 28.168 0 00-2.484 6.408zM24 38.328a25.356 25.356 0 01-3.438-7.128h6.876A25.356 25.356 0 0124 38.328zM28.212 27.6h-8.424c-.162-1.188-.288-2.376-.288-3.6 0-1.224.126-2.43.288-3.6h8.424c.162 1.17.288 2.376.288 3.6 0 1.224-.126 2.412-.288 3.6zm.45 10.008a28.168 28.168 0 002.484-6.408h5.31a14.453 14.453 0 01-7.794 6.408zM31.848 27.6c.144-1.188.252-2.376.252-3.6 0-1.224-.108-2.412-.252-3.6h6.084c.288 1.152.468 2.358.468 3.6s-.18 2.448-.468 3.6h-6.084z" fill="#fff"/></svg>