<svg width="48" height="48" fill="none" xmlns="http://www.w3.org/2000/svg"><path d="M37.714 23.143h-2.571v-6.857a3.439 3.439 0 00-3.429-3.429h-6.857v-2.571A4.287 4.287 0 0020.571 6a4.287 4.287 0 00-4.285 4.286v2.571H9.429c-1.886 0-3.412 1.543-3.412 3.429V22.8h2.554a4.631 4.631 0 014.629 4.629 4.631 4.631 0 01-4.629 4.628H6v6.514A3.439 3.439 0 009.429 42h6.514v-2.571A4.631 4.631 0 0120.57 34.8a4.631 4.631 0 014.629 4.629V42h6.514a3.439 3.439 0 003.429-3.429v-6.857h2.571A4.287 4.287 0 0042 27.43a4.287 4.287 0 00-4.286-4.286z" fill="#fff"/></svg>