<!-- icon666.com - MILLIONS vector ICONS FREE --><svg version="1.1" id="Capa_1" xmlns="http://www.w3.org/2000/svg" xmlns:xlink="http://www.w3.org/1999/xlink" x="0px" y="0px" viewBox="0 0 482.955 482.955" style="enable-background:new 0 0 482.955 482.955;" xml:space="preserve"><g><g><path d="M419.433,118.155c-1.1-1.813-2.871-3.118-4.928-3.632l-15.536-3.84C351.793,99,304.078,127.772,292.395,174.948 c-0.001,0.002-0.001,0.005-0.002,0.007l-3.128,12.64l-36.544,23.288l8.88-63.016l11.2-8.664 c38.456-29.718,45.54-84.985,15.821-123.441c-0.002-0.002-0.004-0.005-0.005-0.007l-9.784-12.656 c-2.7-3.483-7.707-4.126-11.2-1.44l-12.68,9.784c-38.451,29.717-45.536,84.977-15.824,123.432l6.88,8.912l-7.2,50.968 c-8.487-16.26-21.881-29.433-38.28-37.648l-4.216-2.112l-3.032-9.888c-14.32-46.415-63.498-72.489-109.952-58.296l-15.304,4.696 c-4.223,1.298-6.595,5.774-5.297,9.997c0,0.001,0.001,0.002,0.001,0.003l4.696,15.296c14.265,46.46,63.492,72.56,109.952,58.296 l14.472-4.448l1.504,0.76c17.076,8.52,30.037,23.512,36,41.64l1.944,5.904h-124.92c-4.418,0-8,3.582-8,8v48c0,4.418,3.582,8,8,8 h9.176l28.8,179.8c1.827,11.651,11.879,20.228,23.672,20.2h148.704c11.805,0.044,21.875-8.537,23.704-20.2l28.768-179.8h9.176 c4.418,0,8-3.582,8-8v-48c0-4.418-3.582-8-8-8h-108.56l28.112-17.92l12,2.968c47.144,11.702,94.848-17.03,106.55-64.174 c0.006-0.025,0.012-0.049,0.018-0.074l3.848-15.536C420.859,122.157,420.53,119.975,419.433,118.155z M110.633,129.939 l60.424,30.28c-37.613,10.558-76.787-10.784-88.312-48.112l-2.352-7.648l7.648-2.344c36.069-11.017,74.53,7.648,88.192,42.8 l-58.4-29.28c-3.95-1.988-8.764-0.398-10.752,3.552S106.683,127.951,110.633,129.939z M264.777,24.099l-0.04,0.008l6.328-4.896 l4.896,6.328c23.694,30.735,18.765,74.719-11.144,99.448l9.072-64.432c0.616-4.376-2.432-8.424-6.808-9.04 c-4.376-0.616-8.424,2.432-9.04,6.808l-8.864,63.032C227.92,89.894,234.747,47.333,264.777,24.099z M324.633,460.227 c-0.621,3.883-3.972,6.738-7.904,6.736H168.025c-3.932,0.002-7.283-2.853-7.904-6.736l-28.36-177.272h221.232L324.633,460.227z M370.377,234.955v32h-256v-32H370.377z M400.969,135.899c-9.276,37.236-46.125,60.654-83.776,53.24l47.056-28.368 c3.784-2.284,5-7.204,2.716-10.988s-7.204-5-10.988-2.716l-47.048,28.368c10.959-36.81,48.929-58.492,86.2-49.224l7.76,1.92 L400.969,135.899z"></path></g></g></svg>